<?xml version="1.0" standalone="no"?>
<!DOCTYPE svg PUBLIC "-//W3C//DTD SVG 20010904//EN"
 "http://www.w3.org/TR/2001/REC-SVG-20010904/DTD/svg10.dtd">
<svg version="1.0" xmlns="http://www.w3.org/2000/svg"
 width="512.000000pt" height="512.000000pt" viewBox="0 0 512.000000 512.000000"
 preserveAspectRatio="xMidYMid meet">

<circle cx="256" cy="256" r="256" fill="#ffffff"/>
<g transform="translate(0.000000,512.000000) scale(0.100000,-0.100000)"
fill="#000000" stroke="none">
<path d="M975 2708 c-196 -508 -370 -948 -385 -978 -35 -69 -87 -123 -151
-155 -39 -20 -49 -30 -49 -50 l0 -25 285 0 285 0 0 30 c0 28 -3 30 -35 30
-121 0 -207 55 -220 141 -11 72 11 160 98 387 l81 212 362 0 363 0 19 -52
c211 -562 215 -573 191 -623 -17 -36 -83 -64 -151 -64 -46 -1 -48 -2 -48 -31
l0 -30 350 0 350 0 0 30 c0 24 -4 30 -22 30 -35 0 -102 46 -133 90 -26 38
-135 311 -595 1502 -178 460 -186 478 -211 478 -25 0 -36 -27 -384 -922z m605
-340 c0 -4 -151 -8 -335 -8 -184 0 -335 2 -335 4 0 2 187 490 332 866 8 22 32
-35 174 -415 90 -241 164 -443 164 -447z"/>
<path d="M2370 3589 c0 -24 4 -26 77 -37 88 -14 115 -29 140 -75 17 -30 18
-90 21 -877 2 -583 -1 -861 -9 -897 -6 -29 -22 -67 -35 -83 -27 -32 -103 -60
-161 -60 -30 0 -33 -3 -33 -30 l0 -30 290 0 290 0 0 30 c0 28 -3 30 -35 30
-74 0 -139 21 -176 59 -30 30 -38 47 -48 102 -11 68 -17 1698 -5 1687 3 -4
173 -437 377 -965 348 -896 374 -958 397 -961 25 -3 34 21 379 950 195 524
358 960 363 968 4 8 7 -374 5 -850 -2 -843 -3 -866 -22 -905 -26 -51 -67 -74
-149 -82 -64 -6 -66 -7 -66 -34 l0 -29 380 0 380 0 0 29 c0 28 -1 28 -63 33
-79 7 -127 29 -152 71 -19 31 -20 56 -20 922 0 833 1 892 18 922 25 46 52 61
140 75 74 11 77 13 77 38 l0 27 -257 -5 c-142 -2 -261 -7 -264 -11 -4 -3 -150
-390 -325 -859 -174 -468 -320 -849 -323 -846 -3 3 -152 390 -331 861 l-325
856 -268 1 -267 1 0 -26z"/>
</g>
</svg>
